<?xml version="1.0" standalone="no"?>
<!DOCTYPE svg PUBLIC "-//W3C//DTD SVG 20010904//EN"
 "http://www.w3.org/TR/2001/REC-SVG-20010904/DTD/svg10.dtd">
<svg version="1.0" xmlns="http://www.w3.org/2000/svg"
 width="63.957447pt" height="64.000000pt" viewBox="0 0 63.957447 64.000000"
 preserveAspectRatio="xMidYMid meet">
<metadata>
Created by potrace 1.16, written by Peter Selinger 2001-2019
</metadata>
<g transform="translate(0.000000,64.000000) scale(0.004255,-0.004255)"
fill="grey" stroke="none">
<path d="M1 11518 c1 -1938 5 -3478 10 -3423 128 1628 756 3134 1813 4355 557
642 1274 1229 1986 1625 58 32 112 67 120 77 8 10 25 20 36 22 27 5 291 138
338 170 21 14 43 23 50 20 6 -2 32 9 56 25 24 16 48 27 52 25 5 -3 20 4 34 15
15 11 30 18 35 15 5 -3 21 4 35 15 14 11 31 18 38 15 7 -3 18 2 25 10 7 8 18
13 25 10 7 -3 18 2 25 10 7 8 18 13 25 10 7 -3 19 2 26 10 7 9 16 13 22 10 5
-3 16 0 24 7 8 7 27 14 40 15 14 2 32 8 40 15 9 7 27 14 41 15 14 2 34 11 44
20 10 9 19 14 19 9 0 -4 7 -2 15 5 8 7 15 9 15 5 0 -4 6 -2 13 4 8 6 16 9 19
6 5 -6 151 41 183 58 11 6 23 11 27 12 3 0 9 3 13 7 4 4 13 4 20 2 7 -3 30 2
51 12 22 9 45 16 51 15 7 -1 23 4 35 11 13 7 29 11 35 10 7 -2 23 3 35 9 13 7
37 13 55 15 18 2 43 9 55 16 13 7 28 11 35 10 6 -1 14 2 18 7 3 6 12 8 19 5 8
-3 17 0 21 5 3 6 11 9 16 6 5 -4 14 -3 20 1 6 3 28 8 48 9 20 2 50 9 66 15 17
7 48 14 71 16 22 2 54 9 70 15 16 7 33 11 38 10 5 -1 16 1 25 4 9 4 35 8 59
10 23 1 48 8 56 14 7 6 15 8 18 5 6 -5 342 43 368 53 8 4 20 5 25 4 12 -3 235
19 254 25 8 2 75 7 150 10 75 3 138 7 140 10 2 2 -1594 4 -3547 4 l-3552 0 1
-3522z"/>
<path d="M8025 15029 c2088 -144 3986 -1123 5320 -2744 212 -257 456 -606 650
-930 60 -99 114 -185 122 -190 7 -6 16 -22 18 -37 3 -15 39 -91 80 -170 444
-855 725 -1853 804 -2858 5 -58 9 1476 10 3418 l1 3522 -3562 -1 c-1981 -1
-3510 -6 -3443 -10z"/>
<path d="M1 3523 l-1 -3523 3552 0 c1953 0 3549 2 3547 4 -2 3 -66 7 -142 10
-76 3 -141 7 -145 10 -4 2 -41 6 -82 10 -357 32 -969 152 -1344 262 -65 19
-121 32 -124 30 -3 -3 -11 -1 -18 5 -17 14 -246 90 -252 84 -3 -3 -12 1 -21 8
-17 15 -135 59 -163 62 -9 1 -22 6 -30 11 -18 14 -219 96 -240 99 -9 0 -22 6
-30 12 -7 6 -60 32 -117 57 -307 139 -697 357 -1036 581 -712 472 -1347 1070
-1862 1756 -861 1146 -1369 2495 -1482 3939 -5 58 -9 -1476 -10 -3417z"/>
<path d="M15016 6928 c-22 -364 -109 -892 -216 -1305 -392 -1513 -1253 -2874
-2455 -3879 -1225 -1023 -2720 -1623 -4320 -1733 -67 -4 1462 -9 3443 -10
l3562 -1 0 3520 c0 1936 -2 3520 -3 3520 -2 0 -7 -51 -11 -112z"/>
</g>
</svg>
